Coordinates
version=1
nRows=6
nColumns=63
inDegrees=yes

Units are S.I. units (second, meters, Newtons, ...)
If the header above contains a line with 'inDegrees', this indicates whether rotational values are in degrees (yes) or radians (no).

endheader
time	pelvis_tilt	pelvis_list	pelvis_rotation	pelvis_tx	pelvis_ty	pelvis_tz	hip_flexion_r	hip_adduction_r	hip_rotation_r	knee_angle_r	knee_angle_r_beta	ankle_angle_r	subtalar_angle_r	mtp_angle_r	hip_flexion_l	hip_adduction_l	hip_rotation_l	knee_angle_l	knee_angle_l_beta	ankle_angle_l	subtalar_angle_l	mtp_angle_l	L5_S1_Flex_Ext	L5_S1_Lat_Bending	L5_S1_axial_rotation	L4_L5_Flex_Ext	L4_L5_Lat_Bending	L4_L5_axial_rotation	L3_L4_Flex_Ext	L3_L4_Lat_Bending	L3_L4_axial_rotation	L2_L3_Flex_Ext	L2_L3_Lat_Bending	L2_L3_axial_rotation	L1_L2_Flex_Ext	L1_L2_Lat_Bending	L1_L2_axial_rotation	L1_T12_Flex_Ext	L1_T12_Lat_Bending	L1_T12_axial_rotation	Abs_r3	Abs_r2	Abs_r1	Abs_t1	Abs_t2	neck_flexion	neck_bending	neck_rotation	arm_flex_r	arm_add_r	arm_rot_r	elbow_flex_r	pro_sup_r	wrist_flex_r	wrist_dev_r	arm_flex_l	arm_add_l	arm_rot_l	elbow_flex_l	pro_sup_l	wrist_flex_l	wrist_dev_l
      0.00000000	      5.05007930	     -2.86505331	     91.51708659	      0.41016817	      0.87883175	      0.66622578	      8.36506198	     11.27705640	      6.09521578	     14.61392635	      0.25506113	     35.41150918	     -8.02655988	      0.00000000	     19.44602717	    -12.83955067	     -2.86452506	     31.17563242	      0.54411743	     44.13003053	      5.69600942	      0.00000000	      0.21559886	      0.63863177	      1.26123570	      0.40038864	      0.84938026	      1.34006293	      0.35420737	      1.55276929	      1.34006293	      0.24640794	      1.55276929	      1.10358124	      0.20020510	      1.30229791	      1.02475401	      0.12319319	      0.98924061	      0.94592677	      1.54000110	      7.22433032	      7.01461459	      0.00000000	      0.00000000	     28.06805782	     -9.01950986	     -9.27687412	      0.69638116	    -14.29925042	     30.82092425	     49.12932704	     73.03985556	     10.96990447	      9.22775345	     13.18672750	     -8.44096922	     60.85002548	     50.50965857	     54.79872685	     -1.95563650	      5.84347726
      0.01694915	      4.72537431	     -3.24548662	     91.21316736	      0.40969472	      0.87768073	      0.66850826	      9.23470165	     10.91040722	      6.44399967	     15.20511668	      0.26537935	     36.41094091	     -7.63925014	      0.00000000	     20.47821520	    -12.53002083	     -2.89357565	     32.10313950	      0.56030548	     44.89238633	      5.41848354	      0.00000000	      0.26363105	      0.59692539	      1.30533383	      0.48958923	      0.79391077	      1.38691719	      0.43311946	      1.45136440	      1.38691719	      0.30130393	      1.45136440	      1.14216710	      0.24480779	      1.21725026	      1.06058374	      0.15063878	      0.92463744	      0.97900037	      1.88309024	      6.75253945	      7.25987515	      0.00000000	      0.00000000	     28.16608177	    -10.07761377	     -9.97580610	      1.87323352	    -14.74122849	     32.74934629	     48.77575587	     72.71834134	     11.52199487	      9.97008443	     13.54069292	     -8.72998203	     60.61520666	     50.75769655	     54.72550140	     -1.16102700	      6.00603786
      0.03389831	      4.30596399	     -3.48073316	     90.85106391	      0.40903440	      0.87685305	      0.67078075	     10.03542604	     10.17738029	      4.70600649	     16.03714990	      0.27990107	     37.75999991	     -4.57497948	      0.00000000	     21.22103089	    -12.10061628	     -2.88897201	     32.86483261	      0.57359954	     45.11769119	      4.94551389	      0.00000000	      0.28213603	      0.55499606	      1.27005027	      0.52395481	      0.73814476	      1.34942841	      0.46352128	      1.34941742	      1.34942841	      0.32245326	      1.34941742	      1.11129399	      0.26199151	      1.13174796	      1.03191584	      0.16121253	      0.85968890	      0.95253770	      2.01526942	      6.27822642	      7.06363859	      0.00000000	      0.00000000	     28.21498885	    -10.03215917	     -9.64283606	      3.41646664	    -15.27673100	     36.48878131	     48.19858162	     67.82943470	     10.60768757	      9.76994159	     13.35871460	     -8.93568814	     59.08623609	     50.83939657	     55.29400729	      0.20500045	      6.55802365
      0.05084746	      4.12887272	     -3.52647680	     90.64098720	      0.40852036	      0.87636259	      0.67262562	     10.32218083	      9.96769553	      4.82666214	     16.30252105	      0.28453267	     37.97358374	     -4.47583528	      0.00000000	     21.75648584	    -11.96367677	     -2.86622702	     33.60047817	      0.58643897	     45.12592617	      4.82198601	      0.00000000	      0.27492976	      0.54399398	      1.26334223	      0.51057206	      0.72351200	      1.34230112	      0.45168210	      1.32266697	      1.34230112	      0.31421722	      1.32266697	      1.10542445	      0.25529978	      1.10931253	      1.02646556	      0.15709487	      0.84264668	      0.94750667	      1.96379579	      6.15376873	      7.02633047	      0.00000000	      0.00000000	     28.23231926	    -10.04957906	     -9.46625100	      3.84424077	    -15.10156445	     36.66063891	     47.92494640	     67.73961777	     10.55352282	      9.75202489	     13.51346536	     -9.09357926	     58.87236987	     50.87581492	     55.15035377	      0.35365321	      6.59380331
      0.06779661	      3.73235921	     -3.88288668	     90.33379004	      0.40838317	      0.87547702	      0.67461145	     11.26661034	      9.52652819	      4.54289015	     17.29471067	      0.30184964	     38.29238906	     -4.15789077	      0.00000000	     22.41470528	    -11.56490985	     -2.79827353	     33.99559932	      0.59333514	     44.75586021	      4.29748712	      0.00000000	      0.30850312	      0.50530966	      1.18093984	      0.57292114	      0.67206184	      1.25474858	      0.50683977	      1.22860990	      1.25474858	      0.35258821	      1.22860990	      1.03332236	      0.28647600	      1.03042745	      0.95951362	      0.17627868	      0.78272466	      0.88570488	      2.20360693	      5.71616390	      6.56803310	      0.00000000	      0.00000000	     28.24503282	     -9.05985167	     -8.46988466	      4.61841177	    -14.76659672	     37.93677356	     47.28851955	     66.89581131	     10.40500523	      8.85931940	     13.24017073	     -9.59802869	     57.94398844	     51.18437630	     54.38693070	      1.04166608	      6.97515784
      0.08474576	      3.42528392	     -3.89924024	     90.23326965	      0.40800186	      0.87531857	      0.67613914	     11.52291743	      9.09675282	      3.87625004	     17.65148014	      0.30807645	     38.36701729	     -3.43820787	      0.00000000	     22.67435282	    -11.21196849	     -2.61086056	     34.30104985	      0.59866626	     44.23946296	      3.95513923	      0.00000000	      0.29269904	      0.48139089	      1.02994252	      0.54357139	      0.64024989	      1.09431393	      0.48087525	      1.17045381	      1.09431393	      0.33452573	      1.17045381	      0.90119970	      0.27180033	      0.98165231	      0.83682830	      0.16724823	      0.74567449	      0.77245689	      2.09071997	      5.44559005	      5.72823130	      0.00000000	      0.00000000	     28.23996197	     -7.94187132	     -7.21876892	      5.64589781	    -14.43158878	     40.10534694	     46.32966822	     65.08829426	      9.69805504	      7.08727403	     12.82747104	     -9.97983605	     56.69524673	     51.37407826	     54.05380183	      1.32728671	      7.50352867
